<svg xmlns="http://www.w3.org/2000/svg" width="400" height="260" viewBox="0 0 400 260">
  <defs>
    <linearGradient id="bg-items" x1="0%" y1="0%" x2="100%" y2="100%">
      <stop offset="0%" stop-color="#1C1C1C" />
      <stop offset="100%" stop-color="#2C5F2D" />
    </linearGradient>
    <linearGradient id="ring-glow" x1="0%" y1="0%" x2="100%" y2="0%">
      <stop offset="0%" stop-color="#F5D899" />
      <stop offset="100%" stop-color="#D4AF37" />
    </linearGradient>
    <linearGradient id="necklace" x1="0%" y1="0%" x2="0%" y2="100%">
      <stop offset="0%" stop-color="#F9F5EC" stop-opacity="0.9" />
      <stop offset="100%" stop-color="#CBB376" stop-opacity="0.9" />
    </linearGradient>
    <filter id="shadow" x="-20%" y="-20%" width="140%" height="140%">
      <feDropShadow dx="0" dy="12" stdDeviation="12" flood-color="#000" flood-opacity="0.35" />
    </filter>
  </defs>
  <rect width="400" height="260" rx="28" fill="url(#bg-items)" />
  <circle cx="320" cy="70" r="80" fill="#ffffff08" />
  <circle cx="90" cy="210" r="90" fill="#00000018" />
  <path d="M118 72c34 44 86 44 120 0" fill="none" stroke="url(#necklace)" stroke-width="12" stroke-linecap="round" filter="url(#shadow)" />
  <circle cx="178" cy="84" r="18" fill="url(#necklace)" filter="url(#shadow)" />
  <circle cx="118" cy="72" r="10" fill="#F5D899" />
  <circle cx="238" cy="72" r="10" fill="#F5D899" />
  <g transform="translate(244 116)">
    <circle cx="48" cy="48" r="46" stroke="url(#ring-glow)" stroke-width="10" fill="none" filter="url(#shadow)" />
    <path d="M16 20h64l-12 22H28z" fill="url(#ring-glow)" />
  </g>
  <path d="M62 154c10-18 34-28 60-22s42 26 44 46c-42 42-94 44-126 18-6-12 8-30 22-42z" fill="#ffffff14" />
  <circle cx="96" cy="186" r="22" fill="#F5D899" opacity="0.9" />
  <circle cx="136" cy="188" r="12" fill="#F5D899" opacity="0.8" />
</svg>

