<svg xmlns="http://www.w3.org/2000/svg" width="400" height="260" viewBox="0 0 400 260">
  <defs>
    <linearGradient id="bg-sets" x1="0%" y1="0%" x2="100%" y2="100%">
      <stop offset="0%" stop-color="#120F1A" />
      <stop offset="100%" stop-color="#2C5F2D" />
    </linearGradient>
    <linearGradient id="box-top" x1="0%" y1="0%" x2="100%" y2="0%">
      <stop offset="0%" stop-color="#F5F1E5" />
      <stop offset="100%" stop-color="#D8C69D" />
    </linearGradient>
    <linearGradient id="box-body" x1="0%" y1="0%" x2="0%" y2="100%">
      <stop offset="0%" stop-color="#101820" />
      <stop offset="100%" stop-color="#1C2D38" />
    </linearGradient>
    <linearGradient id="ribbon" x1="0%" y1="0%" x2="100%" y2="100%">
      <stop offset="0%" stop-color="#C41E3A" />
      <stop offset="100%" stop-color="#F06A6A" />
    </linearGradient>
    <filter id="shadow-sets" x="-20%" y="-20%" width="140%" height="140%">
      <feDropShadow dx="0" dy="14" stdDeviation="14" flood-color="#000" flood-opacity="0.35" />
    </filter>
  </defs>
  <rect width="400" height="260" rx="28" fill="url(#bg-sets)" />
  <circle cx="80" cy="80" r="70" fill="#ffffff12" />
  <circle cx="320" cy="210" r="90" fill="#00000018" />
  <g transform="translate(90 60)" filter="url(#shadow-sets)">
    <rect width="220" height="120" rx="24" fill="url(#box-body)" />
    <rect x="16" y="16" width="188" height="68" rx="20" fill="#0F2330" />
    <path d="M40 100h160l24 24H16z" fill="#0B1721" opacity="0.65" />
    <rect x="70" y="-28" width="100" height="60" rx="16" fill="url(#box-top)" />
    <path d="M110 -28v188" stroke="url(#ribbon)" stroke-width="18" stroke-linecap="round" />
    <path d="M70 20h100" stroke="url(#ribbon)" stroke-width="18" stroke-linecap="round" />
    <path d="M90 0c16-18 44-18 60 0-18 12-42 12-60 0z" fill="url(#ribbon)" />
    <circle cx="40" cy="60" r="10" fill="#F5D899" />
    <circle cx="180" cy="60" r="10" fill="#F5D899" />
  </g>
  <path d="M40 220c80-60 200-60 280 0" stroke="#ffffff18" stroke-width="30" stroke-linecap="round" fill="none" />
</svg>

